<svg width="510" height="330" viewBox="0 0 510 330" fill="none" xmlns="http://www.w3.org/2000/svg">
<g clip-path="url(#clip0_1_2375)">
<path d="M418.036 55.0543C419.204 55.0543 420.151 54.1049 420.151 52.9337C420.151 51.7625 419.204 50.8131 418.036 50.8131C416.868 50.8131 415.922 51.7625 415.922 52.9337C415.922 54.1049 416.868 55.0543 418.036 55.0543Z" fill="#FF6600" fill-opacity="0.08"/>
<path d="M433.245 55.0543C434.413 55.0543 435.36 54.1049 435.36 52.9337C435.36 51.7625 434.413 50.8131 433.245 50.8131C432.077 50.8131 431.13 51.7625 431.13 52.9337C431.13 54.1049 432.077 55.0543 433.245 55.0543Z" fill="#FF6600" fill-opacity="0.08"/>
<path d="M448.434 55.0543C449.602 55.0543 450.548 54.1049 450.548 52.9337C450.548 51.7625 449.602 50.8131 448.434 50.8131C447.266 50.8131 446.319 51.7625 446.319 52.9337C446.319 54.1049 447.266 55.0543 448.434 55.0543Z" fill="#FF6600" fill-opacity="0.08"/>
<path d="M463.643 55.0543C464.811 55.0543 465.757 54.1049 465.757 52.9337C465.757 51.7625 464.811 50.8131 463.643 50.8131C462.475 50.8131 461.528 51.7625 461.528 52.9337C461.528 54.1049 462.475 55.0543 463.643 55.0543Z" fill="#FF6600" fill-opacity="0.08"/>
<path d="M418.036 67.1255C419.204 67.1255 420.151 66.1761 420.151 65.0049C420.151 63.8337 419.204 62.8843 418.036 62.8843C416.868 62.8843 415.922 63.8337 415.922 65.0049C415.922 66.1761 416.868 67.1255 418.036 67.1255Z" fill="#FF6600" fill-opacity="0.08"/>
<path d="M433.245 67.1255C434.413 67.1255 435.36 66.1761 435.36 65.0049C435.36 63.8337 434.413 62.8843 433.245 62.8843C432.077 62.8843 431.13 63.8337 431.13 65.0049C431.13 66.1761 432.077 67.1255 433.245 67.1255Z" fill="#FF6600" fill-opacity="0.08"/>
<path d="M448.434 67.1255C449.602 67.1255 450.548 66.1761 450.548 65.0049C450.548 63.8337 449.602 62.8843 448.434 62.8843C447.266 62.8843 446.319 63.8337 446.319 65.0049C446.319 66.1761 447.266 67.1255 448.434 67.1255Z" fill="#FF6600" fill-opacity="0.08"/>
<path d="M463.643 67.1255C464.811 67.1255 465.757 66.1761 465.757 65.0049C465.757 63.8337 464.811 62.8843 463.643 62.8843C462.475 62.8843 461.528 63.8337 461.528 65.0049C461.528 66.1761 462.475 67.1255 463.643 67.1255Z" fill="#FF6600" fill-opacity="0.08"/>
<path d="M420.151 77.0761C420.151 78.2587 419.195 79.1967 418.036 79.1967C416.857 79.1967 415.922 78.2383 415.922 77.0761C415.922 75.8934 416.877 74.9555 418.036 74.9555C419.195 74.9351 420.151 75.8934 420.151 77.0761Z" fill="#FF6600" fill-opacity="0.08"/>
<path d="M435.36 77.0761C435.36 78.2587 434.404 79.1967 433.245 79.1967C432.066 79.1967 431.13 78.2383 431.13 77.0761C431.13 75.8934 432.086 74.9555 433.245 74.9555C434.404 74.9351 435.36 75.8934 435.36 77.0761Z" fill="#FF6600" fill-opacity="0.08"/>
<path d="M450.569 77.0761C450.569 78.2587 449.613 79.1967 448.454 79.1967C447.275 79.1967 446.34 78.2383 446.34 77.0761C446.34 75.8934 447.295 74.9555 448.454 74.9555C449.613 74.9351 450.569 75.8934 450.569 77.0761Z" fill="#FF6600" fill-opacity="0.08"/>
<path d="M465.778 77.0761C465.778 78.2587 464.822 79.1967 463.663 79.1967C462.504 79.1967 461.548 78.2383 461.548 77.0761C461.548 75.8934 462.504 74.9554 463.663 74.9554C464.822 74.9554 465.778 75.8934 465.778 77.0761Z" fill="#FF6600" fill-opacity="0.08"/>
<path d="M418.036 91.2679C419.204 91.2679 420.151 90.3185 420.151 89.1473C420.151 87.9761 419.204 87.0267 418.036 87.0267C416.868 87.0267 415.922 87.9761 415.922 89.1473C415.922 90.3185 416.868 91.2679 418.036 91.2679Z" fill="#FF6600" fill-opacity="0.08"/>
<path d="M433.245 91.2679C434.413 91.2679 435.36 90.3185 435.36 89.1473C435.36 87.9761 434.413 87.0267 433.245 87.0267C432.077 87.0267 431.13 87.9761 431.13 89.1473C431.13 90.3185 432.077 91.2679 433.245 91.2679Z" fill="#FF6600" fill-opacity="0.08"/>
<path d="M448.434 91.2679C449.602 91.2679 450.548 90.3185 450.548 89.1473C450.548 87.9761 449.602 87.0267 448.434 87.0267C447.266 87.0267 446.319 87.9761 446.319 89.1473C446.319 90.3185 447.266 91.2679 448.434 91.2679Z" fill="#FF6600" fill-opacity="0.08"/>
<path d="M463.643 91.2679C464.811 91.2679 465.757 90.3185 465.757 89.1473C465.757 87.9761 464.811 87.0267 463.643 87.0267C462.475 87.0267 461.528 87.9761 461.528 89.1473C461.528 90.3185 462.475 91.2679 463.643 91.2679Z" fill="#FF6600" fill-opacity="0.08"/>
<path d="M405.328 164.715H117.679C117.109 164.715 116.662 164.266 116.662 163.695V1.01953C116.662 0.448591 117.109 0 117.679 0H405.328C405.897 0 406.345 0.448591 406.345 1.01953V163.695C406.345 164.266 405.877 164.715 405.328 164.715ZM118.695 162.675H404.311V2.03905H118.695V162.675Z" fill="#FF6600" fill-opacity="0.08"/>
<path d="M407.463 172.932H115.544C112.717 172.932 110.42 170.628 110.42 167.793C110.42 164.959 112.717 162.655 115.544 162.655H407.443C410.269 162.655 412.567 164.959 412.567 167.793C412.567 170.628 410.269 172.932 407.463 172.932ZM115.544 164.714C113.836 164.714 112.453 166.101 112.453 167.814C112.453 169.527 113.836 170.913 115.544 170.913H407.443C409.151 170.913 410.533 169.527 410.533 167.814C410.533 166.101 409.151 164.714 407.443 164.714H115.544Z" fill="#FF6600" fill-opacity="0.08"/>
<path d="M142.363 40.4548C148.219 33.4405 156.819 29.4235 165.949 29.4235C170.788 29.4235 175.607 30.5858 179.897 32.7676L166.132 59.8665C166.091 59.8462 166.05 59.8258 165.949 59.8258C165.888 59.8258 165.746 59.8258 165.603 59.9889L142.363 40.4548Z" fill="#FF6600" fill-opacity="0.08"/>
<path d="M135.185 60.2744H165.502C165.502 60.519 165.685 60.6414 165.746 60.6822L151.878 87.72C141.59 82.3981 135.185 71.8766 135.185 60.2744Z" fill="#FF6600" fill-opacity="0.08"/>
<path d="M165.949 91.1252V60.7229C166.132 60.7026 166.396 60.5802 166.396 60.2744C166.396 60.1724 166.376 60.1112 166.335 60.0297L191.304 42.7793C194.862 47.9381 196.733 53.9941 196.733 60.2744C196.733 76.0362 184.96 89.2085 169.344 90.9417C168.206 91.064 167.067 91.1252 165.949 91.1252Z" fill="#FF6600" fill-opacity="0.08"/>
<path d="M175.627 100.892H146.734C146.165 100.892 145.718 100.444 145.718 99.8727C145.718 99.3018 146.165 98.8532 146.734 98.8532H175.607C176.176 98.8532 176.624 99.3018 176.624 99.8727C176.644 100.444 176.176 100.892 175.627 100.892Z" fill="#FF6600" fill-opacity="0.08"/>
<path d="M186.871 108.885H146.734C146.165 108.885 145.718 108.437 145.718 107.866C145.718 107.295 146.165 106.846 146.734 106.846H186.871C187.441 106.846 187.888 107.295 187.888 107.866C187.888 108.437 187.441 108.885 186.871 108.885Z" fill="#FF6600" fill-opacity="0.08"/>
<path d="M172.679 116.878H146.734C146.165 116.878 145.718 116.43 145.718 115.859C145.718 115.288 146.165 114.839 146.734 114.839H172.679C173.248 114.839 173.696 115.288 173.696 115.859C173.696 116.409 173.248 116.878 172.679 116.878Z" fill="#FF6600" fill-opacity="0.08"/>
<path d="M287.438 126.034C287.438 127.237 286.462 128.216 285.262 128.216C284.063 128.216 283.087 127.237 283.087 126.034C283.087 124.831 284.063 123.852 285.262 123.852C286.482 123.852 287.438 124.831 287.438 126.034Z" fill="#FF6600" fill-opacity="0.08"/>
<path d="M333.451 126.034C333.451 127.237 332.475 128.216 331.276 128.216C330.076 128.216 329.1 127.237 329.1 126.034C329.1 124.831 330.076 123.852 331.276 123.852C332.475 123.852 333.451 124.831 333.451 126.034Z" fill="#FF6600" fill-opacity="0.08"/>
<path d="M368.851 99.7708H271.07C270.846 99.7708 270.663 99.5872 270.663 99.3629C270.663 99.1387 270.846 98.9551 271.07 98.9551H368.851C369.074 98.9551 369.257 99.1387 369.257 99.3629C369.257 99.5872 369.074 99.7708 368.851 99.7708Z" fill="#FF6600" fill-opacity="0.08"/>
<path d="M368.851 82.9078H271.07C270.846 82.9078 270.663 82.7243 270.663 82.5C270.663 82.2757 270.846 82.0922 271.07 82.0922H368.851C369.074 82.0922 369.257 82.2757 369.257 82.5C369.257 82.7243 369.074 82.9078 368.851 82.9078Z" fill="#FF6600" fill-opacity="0.08"/>
<path d="M368.851 67.2275H271.07C270.846 67.2275 270.663 67.044 270.663 66.8197C270.663 66.5954 270.846 66.4119 271.07 66.4119H368.851C369.074 66.4119 369.257 66.5954 369.257 66.8197C369.257 67.044 369.074 67.2275 368.851 67.2275Z" fill="#FF6600" fill-opacity="0.08"/>
<path d="M368.851 53.0765H271.07C270.846 53.0765 270.663 52.893 270.663 52.6687C270.663 52.4444 270.846 52.2609 271.07 52.2609H368.851C369.074 52.2609 369.257 52.4444 369.257 52.6687C369.257 52.893 369.074 53.0765 368.851 53.0765Z" fill="#FF6600" fill-opacity="0.08"/>
<path d="M368.851 36.2136H271.07C270.846 36.2136 270.663 36.0301 270.663 35.8058C270.663 35.5815 270.846 35.3979 271.07 35.3979H368.851C369.074 35.3979 369.257 35.5815 369.257 35.8058C369.257 36.0301 369.074 36.2136 368.851 36.2136Z" fill="#FF6600" fill-opacity="0.08"/>
<path d="M285.262 66.7178H276.539V114.024H285.262V66.7178Z" fill="#FF6600" fill-opacity="0.08"/>
<path d="M299.983 59.1529H291.26V114.024H299.983V59.1529Z" fill="#FF6600" fill-opacity="0.08"/>
<path d="M314.704 48.0605H305.982V114.024H314.704V48.0605Z" fill="#FF6600" fill-opacity="0.08"/>
<path d="M329.425 80.4814H320.703V114.024H329.425V80.4814Z" fill="#FF6600" fill-opacity="0.08"/>
<path d="M344.146 49.6917H335.424V114.024H344.146V49.6917Z" fill="#FF6600" fill-opacity="0.08"/>
<path d="M358.867 84.0701H350.145V114.024H358.867V84.0701Z" fill="#FF6600" fill-opacity="0.08"/>
<path d="M368.851 114.432H271.07C270.846 114.432 270.663 114.248 270.663 114.024C270.663 113.799 270.846 113.616 271.07 113.616H368.851C369.074 113.616 369.257 113.799 369.257 114.024C369.257 114.248 369.074 114.432 368.851 114.432Z" fill="#FF6600" fill-opacity="0.08"/>
<path d="M314.786 127.053H291.26C290.691 127.053 290.244 126.605 290.244 126.034C290.244 125.463 290.691 125.014 291.26 125.014H314.786C315.355 125.014 315.802 125.463 315.802 126.034C315.802 126.584 315.355 127.053 314.786 127.053Z" fill="#FF6600" fill-opacity="0.08"/>
<path d="M360.27 127.053H336.745C336.176 127.053 335.729 126.605 335.729 126.034C335.729 125.463 336.176 125.014 336.745 125.014H360.27C360.84 125.014 361.287 125.463 361.287 126.034C361.287 126.584 360.84 127.053 360.27 127.053Z" fill="#FF6600" fill-opacity="0.08"/>
<path d="M241.486 322.741V317.276H251.876V319.601V322.741L248.216 324.862H244.962L241.486 322.741Z" fill="#FFCEC8"/>
<path d="M241.486 322.741V327.125L267.878 327.064V326.697C267.878 325.759 267.288 324.923 266.393 324.597L251.876 319.58L249.659 322.19C249.659 322.19 246.223 324.698 241.486 322.741Z" fill="#426BFF"/>
<path d="M267.878 327.064V328.675H241.486V327.145L267.878 327.064Z" fill="#426BFF"/>
<path d="M191.284 147.525L191.975 226.029L196.123 317.317H211.698L217.838 176.296C217.899 175.114 218.814 174.176 219.933 174.176C220.99 174.176 221.885 175.012 222.027 176.113L239.025 317.297H253.909V147.525H191.284Z" fill="#426BFF"/>
<path d="M225.89 75.8527C225.89 75.8527 232.153 76.5052 232.803 70.9794C233.454 65.4535 233.678 57.644 233.678 57.644H210.01V80.2978H225.89V75.8527V75.8527Z" fill="#FFCEC8"/>
<path d="M227.456 66.7178C227.456 66.7178 223.654 68.0228 223.41 63.6184C223.41 63.6184 223.979 61.0084 226.805 62.3134C226.805 62.3134 226.439 58.2761 233.596 59.7238C234.186 59.8462 235.06 57.3381 235.142 57.0119C236.301 52.3017 233.23 47.3468 228.838 45.6952C226.338 44.7572 223.308 44.3494 220.644 44.7572C219.546 44.9203 218.448 45.2262 217.472 45.7563C216.842 46.0826 214.89 47.2652 214.89 48.1012V45.0834C211.169 45.0834 208.16 48.1012 208.16 51.8327V72.0805H218.855C221.519 72.0805 224.04 70.8774 225.728 68.818L227.456 66.7178Z" fill="#384B61"/>
<path d="M184.574 83.071C187.624 79.9512 191.873 78.2996 196.245 78.5239L247.85 81.2766L283.819 84.3963L299.211 54.7281L310.272 58.8878L296.73 93.1031C294.981 97.5074 291.545 101.015 287.174 102.829C285.059 103.706 282.782 104.155 280.504 104.155H254.926L255.617 158.169H189.372V133.66C184.309 133.66 180.202 129.541 180.202 124.464V93.7556C180.202 89.759 181.768 85.9256 184.574 83.071Z" fill="#FF6652"/>
<path d="M189.372 133.66V95.3256L187.258 133.395L189.372 133.66Z" fill="#FF361C"/>
<path d="M209.99 79.2579V77.5247L225.89 78.4015V80.2978L209.99 79.2579Z" fill="#FF6652"/>
<path d="M209.278 317.317H198.705V321.456H209.278V317.317Z" fill="#FFCEC8"/>
<path d="M211.393 326.146H196.997L198.136 321.456H209.665L211.393 326.146Z" fill="#426BFF"/>
<path d="M212.369 328.675H196.042V326.86C196.042 326.146 196.611 325.575 197.323 325.575H211.108C211.82 325.575 212.389 326.146 212.389 326.86V328.675H212.369Z" fill="#426BFF"/>
<path d="M212.369 327.064V328.675H196.042V327.145L212.369 327.064Z" fill="#426BFF"/>
<path d="M307.791 57.9702L308.34 55.6865L311.532 49.5489C311.939 49.1411 311.858 48.4682 311.471 48.1828C311.126 47.9177 310.577 47.9789 310.251 48.3663C310.516 47.7546 310.312 47.1021 309.865 46.8166C309.397 46.5311 308.848 46.7758 308.808 46.7962C309.011 46.1029 309.194 45.4301 309.397 44.7368C309.418 44.6552 309.458 44.2474 309.194 43.9008C308.93 43.5745 308.482 43.4318 308.035 43.5337C308.787 41.9841 309.519 40.4344 310.272 38.8847C310.455 38.5992 310.394 38.2118 310.129 37.9875C309.865 37.7632 309.458 37.7836 309.214 38.0283C307.486 40.8218 305.758 43.6357 304.03 46.4292L302.667 48.3663L301.813 52.3017L300.207 55.1971L307.791 57.9702Z" fill="#FFCEC8"/>
<path d="M306.876 46.2253C306.835 46.2253 306.815 46.2253 306.775 46.2049C306.673 46.1437 306.632 46.0214 306.693 45.9398L307.852 43.6765C307.893 43.5745 308.035 43.5337 308.116 43.5949C308.218 43.6561 308.259 43.7784 308.198 43.86L307.039 46.1233C307.018 46.1845 306.937 46.2253 306.876 46.2253Z" fill="#FFABA1"/>
<path d="M225.89 75.8527C225.89 75.8527 224.406 76.5256 220.726 73.4466C220.726 73.4466 221.946 77.0149 225.89 77.382V75.8527Z" fill="#FF9B8F"/>
<path d="M191.365 158.169H253.889L191.385 160.698L191.365 158.169Z" fill="#2453FF"/>
<path d="M393.067 124.403C393.067 124.403 387.394 128.583 387.455 136.025C387.516 143.447 388.065 144.671 382.596 146.812C377.106 148.953 375.439 153.5 375.866 156.416C376.293 159.331 377.533 162.839 386.5 162.329C386.5 162.329 387.13 156.885 388.655 155.335C390.18 153.806 393.311 150.971 400.895 149.055L401.363 143.162C401.363 143.162 395.548 143.264 393.942 138.227L393.067 124.403Z" fill="#FDA74C"/>
<path d="M393.596 136.005C393.393 128.746 392.945 122.771 392.945 122.771C392.945 122.771 409.476 118.245 413.278 129.357C413.278 129.357 416.816 128.99 416.735 132.273C416.654 135.536 413.217 135.801 413.217 135.801L414.153 147.587C414.153 147.587 412.79 153.153 405.857 153.622C405.857 153.622 398.354 153.622 399.533 149.238L400.916 149.075L401.383 143.182C401.363 143.182 393.799 143.243 393.596 136.005Z" fill="#FFCEC8"/>
<path d="M413.278 129.357C413.278 129.357 403.254 134.618 398.252 123.505C398.252 123.505 396.239 127.808 392.986 127.808C392.986 127.808 392.783 120.569 392.783 120.528C392.681 116.858 396.402 114.86 399.411 114.065C403.234 113.045 408.398 113.269 411.611 115.859C414.458 118.163 415.718 121.976 416.267 125.463C416.267 125.463 422.977 125.504 424.116 132.681L424.543 138.655C424.543 138.655 438.511 136.453 440.992 145.466C442.517 150.992 441.48 157.578 435.583 158.067L434.506 155.437C433.55 153.112 431.7 150.747 429.484 149.524C427.267 148.28 425.01 147.648 422.794 147.587H414.132L413.197 135.801C413.197 135.801 416.328 135.475 416.714 132.273C416.755 132.253 416.531 129.113 413.278 129.357Z" fill="#FDA74C"/>
<path d="M401.363 143.182C401.363 143.182 405.775 143.508 407.788 139.757C407.788 139.757 406.914 144.793 401.18 145.548L401.363 143.182Z" fill="#FF9B8F"/>
<path d="M426.271 323.455C426.271 326.248 428.528 328.511 431.313 328.511C434.099 328.511 436.356 326.248 436.356 323.455C436.356 320.661 434.099 318.398 431.313 318.398C428.528 318.398 426.271 320.661 426.271 323.455Z" fill="#426BFF"/>
<path d="M431.883 320.151H390.566C389.997 320.151 389.55 319.703 389.55 319.132C389.55 318.561 389.997 318.112 390.566 318.112H431.883C432.452 318.112 432.899 318.561 432.899 319.132C432.899 319.703 432.432 320.151 431.883 320.151Z" fill="#426BFF"/>
<path d="M411.225 319.397C410.655 319.397 410.208 318.948 410.208 318.377V233.675C410.208 233.104 410.655 232.656 411.225 232.656C411.794 232.656 412.241 233.104 412.241 233.675V318.377C412.241 318.948 411.774 319.397 411.225 319.397Z" fill="#426BFF"/>
<path d="M385.666 323.455C385.666 326.248 387.923 328.511 390.709 328.511C393.494 328.511 395.751 326.248 395.751 323.455C395.751 320.661 393.494 318.398 390.709 318.398C387.923 318.398 385.666 320.661 385.666 323.455Z" fill="#426BFF"/>
<path d="M440.626 247.337H378.529V240.853H442.334L440.626 247.337Z" fill="#3661FF"/>
<path d="M442.293 241.057L464.171 167.161H395.833L410.33 241.057H442.293Z" fill="#426BFF"/>
<path d="M383.511 240.853H377.635L367.651 320.416L352.605 322.089L357.241 318.459L353.418 246.195C353.377 245.522 353.398 244.849 353.337 244.176C352.056 227.721 366.045 217.546 366.045 217.546C366.045 217.546 385.117 214.182 383.511 240.853Z" fill="#FFC1BA"/>
<path d="M368.688 312.811L370.112 318.255C370.457 319.601 369.685 320.987 368.383 321.334L346.22 327.472C345.021 327.798 344.126 326.309 345 325.392L357.891 315.869L368.688 312.811Z" fill="#FF5640"/>
<path d="M368.688 312.811L365.903 315.706C365.903 315.706 361.226 321.436 353.093 319.438L357.871 315.89L368.688 312.811Z" fill="#FFC1BA"/>
<path d="M408.744 194.342L399.045 198.991L389.773 203.518L411.448 203.701L408.744 194.342Z" fill="#FFCEC8"/>
<path d="M433.855 210.206C433.855 210.206 443.066 231.616 430.338 240.853H389.773C389.773 240.853 388.858 216.588 366.045 217.567L378.407 210.206H433.855Z" fill="#FF6652"/>
<path d="M389.773 240.853H383.897L373.914 320.417L358.176 323.455L362.568 318.643L359.599 247.133C359.274 242.423 360.006 237.713 361.694 233.369C362.771 230.576 364.357 227.986 366.167 225.601L371.901 218.015C371.88 218.015 388.716 219.239 389.773 240.853Z" fill="#FFCEC8"/>
<path d="M430.419 198.583L432.513 204.109L413.888 203.701L430.419 198.583Z" fill="#384B61"/>
<path d="M319.076 212.265H479.299C481.536 212.265 483.366 210.43 483.366 208.187C483.366 205.944 481.536 204.109 479.299 204.109H319.076C316.839 204.109 315.009 205.944 315.009 208.187C315.009 210.43 316.819 212.265 319.076 212.265Z" fill="#FDA74C"/>
<path d="M320.641 327.574C320.58 327.574 320.519 327.574 320.479 327.553C319.93 327.451 319.543 326.941 319.645 326.37L338.839 212.673C338.941 212.122 339.449 211.735 340.019 211.837C340.568 211.939 340.954 212.449 340.852 213.02L321.658 326.717C321.556 327.227 321.129 327.574 320.641 327.574Z" fill="#426BFF"/>
<path d="M480.011 327.574C479.523 327.574 479.096 327.227 479.014 326.717L459.82 213.02C459.719 212.469 460.105 211.939 460.654 211.837C461.203 211.735 461.731 212.122 461.833 212.673L481.027 326.37C481.129 326.921 480.743 327.451 480.194 327.553C480.112 327.574 480.051 327.574 480.011 327.574Z" fill="#426BFF"/>
<path d="M414.193 147.79H423.262C427.308 147.79 431.151 149.524 433.835 152.562C435.177 154.091 436.193 155.885 436.783 157.823L444.51 183.127C445.648 186.838 444.876 190.876 442.456 193.893C440.829 195.932 438.552 197.36 436.01 197.971L411.469 203.722L406.65 195.361L399.045 199.011L390.282 203.273L388.858 193.363L386.256 203.457H357.261L356.997 201.214L375.012 195.198L380.359 163.267C380.786 160.677 381.864 158.21 383.45 156.13C386.235 152.48 390.404 150.196 394.958 149.829L399.167 149.483C399.167 149.483 402.908 152.093 407.036 151.522C407.056 151.522 412.282 151.094 414.193 147.79Z" fill="#384B61"/>
<path d="M406.65 195.973C406.426 195.973 406.202 195.851 406.101 195.627C405.958 195.321 406.08 194.954 406.385 194.811L426.515 185.187L420.09 164.205C419.988 163.879 420.171 163.532 420.496 163.43C420.822 163.328 421.167 163.511 421.249 163.838L427.837 185.329C427.918 185.615 427.796 185.921 427.511 186.063L406.894 195.912C406.833 195.953 406.731 195.973 406.65 195.973Z" fill="#212B38"/>
<path d="M388.858 193.975C388.574 193.975 388.309 193.771 388.269 193.465L386.378 182.821C386.317 182.495 386.54 182.169 386.866 182.108C387.191 182.046 387.516 182.271 387.577 182.597L389.468 193.241C389.529 193.567 389.306 193.893 388.98 193.955C388.94 193.975 388.899 193.975 388.858 193.975Z" fill="#212B38"/>
<path d="M390.749 184.738C389.265 184.738 387.801 184.228 386.622 183.229C384.853 181.761 383.979 179.498 384.284 177.234L386.561 160.025C386.601 159.678 386.906 159.474 387.252 159.495C387.577 159.535 387.821 159.841 387.781 160.188L385.503 177.397C385.259 179.253 385.971 181.088 387.415 182.291C388.818 183.453 390.668 183.82 392.376 183.27L392.661 183.82L392.844 184.412L392.661 183.82L392.762 184.432C392.091 184.616 391.42 184.738 390.749 184.738Z" fill="#212B38"/>
<path d="M412.323 204.109C412.038 204.109 411.794 203.925 411.733 203.64C411.652 203.314 411.855 202.987 412.18 202.906L429.87 198.746C430.195 198.665 430.521 198.869 430.602 199.195C430.683 199.521 430.48 199.847 430.155 199.929L412.465 204.089C412.404 204.109 412.363 204.109 412.323 204.109Z" fill="#212B38"/>
<path d="M404.047 204.109H384.832V200.439H400.387C402.4 200.418 404.047 202.07 404.047 204.109Z" fill="#293545"/>
<path d="M387.15 204.109H331.703L322.898 176.235C322.105 173.748 323.956 171.219 326.558 171.219H373.954C375.622 171.219 377.106 172.3 377.614 173.911L387.15 204.109Z" fill="#293545"/>
<path d="M348.864 189.061C349.718 190.57 351.507 191.141 352.849 190.366C354.191 189.591 354.577 187.756 353.703 186.247C352.828 184.738 351.06 184.167 349.718 184.942C348.396 185.717 348.01 187.572 348.864 189.061Z" fill="#526985"/>
<path d="M374.869 314.177L376.049 319.703C376.394 321.049 375.622 322.435 374.32 322.782L352.158 328.919C350.958 329.246 350.063 327.737 350.938 326.84L362.873 317.501L374.869 314.177Z" fill="#FF6652"/>
<path d="M374.605 314.238L371.819 317.134C371.819 317.134 366.797 322.782 358.664 320.784L362.853 317.521L374.605 314.238Z" fill="#FFCEC8"/>
<path d="M90.5951 228.68C84.4749 251.028 93.2384 277.026 97.3456 300.515L110.257 299.068C110.257 299.068 112.656 219.871 111.904 217.465C104.686 220.095 97.2643 219.504 89.8225 221.217C89.8428 221.237 90.5748 228.659 90.5951 228.68Z" fill="#FFCEC8"/>
<path d="M49.3193 296.009L41.3082 316.318L32.9717 314.095L37.0586 293.338C37.0586 293.338 44.0328 294.521 49.3193 296.009Z" fill="#FFCEC8"/>
<path d="M33.0937 312.587L31.1417 317.399C30.6537 318.581 31.1621 319.947 32.26 320.437L50.824 328.858C51.8406 329.307 52.7963 328.043 52.1659 327.105L42.9551 317.052L33.0937 312.587Z" fill="#384B61"/>
<path d="M33.0937 312.587L35.1473 315.584C35.1473 315.584 38.8072 321.395 46.1677 320.58L41.6335 314.911L33.0937 312.587Z" fill="#FFCEC8"/>
<path d="M110.277 298.374L110.643 320.702L102.124 322.089L97.3457 300.515C97.3457 300.515 104.848 299.19 110.277 298.374Z" fill="#FFCEC8"/>
<path d="M101.656 320.661L101.738 325.881C101.758 327.166 102.734 328.206 103.934 328.226L124.226 328.328C125.324 328.328 125.71 326.778 124.775 326.167L112.433 320.722L101.656 320.661Z" fill="#384B61"/>
<path d="M101.656 320.661L104.706 322.558C104.706 322.558 110.318 326.391 116.743 322.619L110.379 319.275L101.656 320.661Z" fill="#FFCEC8"/>
<path d="M90.1884 161.33L95.475 167.732L73.9018 237.407L59.9534 233.145L50.0107 230.107C53.6299 201.703 54.4229 182.577 58.0218 165.856C59.8314 157.435 65.4636 150.523 73.1088 147.383L78.2327 145.282L90.1884 161.33Z" fill="#FFCEC8"/>
<path d="M73.9018 237.407L48.9127 296.988L37.0586 293.338C41.9792 272.642 45.7204 254.31 51.8 229.679H63.715L73.9018 237.407Z" fill="#FFCEC8"/>
<path d="M110.786 198.563C112.494 204.537 113.754 210.654 114.222 216.874C114.71 223.439 114.73 230.637 112.067 236.775C106.658 232.35 83.8039 227.273 77.8871 230.066C70.4452 233.594 62.2714 235.041 54.0976 233.859C43.8701 232.37 35.2286 228.639 29.2304 219.749C25.3469 213.998 21.7276 205.292 22.2156 198.216C24.2285 198.889 25.9975 199.664 28.2341 198.787C32.3414 197.176 34.9033 192.915 38.3599 190.366C44.3988 185.9 47.7944 178.764 50.4986 171.77C53.2029 164.755 55.5412 157.435 60.2178 151.563C61.1531 150.38 62.2307 149.238 63.6134 148.667C66.2566 147.566 69.2456 146.18 71.9295 147.138C78.3954 149.442 84.3123 142.469 88.8262 148.239C91.3068 151.4 93.0147 155.07 94.682 158.699C96.3697 162.37 98.5046 165.897 100.009 169.608C103.588 178.499 107.349 187.328 110.155 196.524C110.379 197.156 110.582 197.87 110.786 198.563Z" fill="#FF6652"/>
<path d="M97.244 74.7516C94.9464 73.9768 93.9297 70.2249 93.9297 70.2249C94.194 66.7789 93.4417 64.6175 92.5674 63.2922L75.4674 62.5989L75.0201 75.3837L73.2105 91.9204L87.4232 92.4098L86.7522 84.8041C86.7522 84.8041 86.8539 84.8245 86.9962 84.8449L91.6931 85.4566L92.6894 85.6605C93.1571 85.7013 93.6247 85.6198 94.0314 85.4159C95.6987 84.6818 95.6173 78.1976 95.6173 78.1976L95.7393 77.0354C97.732 76.2605 97.244 74.7516 97.244 74.7516Z" fill="#FFCEC8"/>
<path d="M86.7725 84.8041L80.2863 83.3156L86.8335 86.4557L86.7725 84.8041Z" fill="#FF897A"/>
<path d="M82.523 72.1008C82.523 72.1008 85.5322 71.0813 87.5655 67.9616C89.0702 65.6574 88.9685 63.6592 88.9685 63.6592C88.9685 63.6592 92.7097 64.1689 93.9297 69.8375C93.9297 69.8375 95.78 64.3321 91.6118 60.1724C88.4398 57.0119 71.9092 54.3611 67.8223 67.9208C65.3417 76.1586 74.8778 81.6232 74.1051 83.6623C74.1051 83.6623 80.5507 82.6631 79.046 76.913L82.523 72.1008Z" fill="#5C403A"/>
<path d="M88.9685 63.6592C88.9685 63.6592 90.3511 73.4262 82.4823 76.7091C82.4823 76.7091 82.523 72.998 78.985 71.6523L88.9685 63.6592Z" fill="#5C403A"/>
<path d="M82.95 78.4831C81.242 79.6861 79.4934 80.1143 78.0701 78.0753C76.6467 76.0362 76.0978 72.2844 77.7854 71.0813C79.4934 69.8783 82.0146 70.5716 83.4379 72.6106C84.8816 74.67 84.6579 77.3004 82.95 78.4831Z" fill="#FFCEC8"/>
<path d="M76.2401 79.8696C76.0571 84.2332 72.3972 87.6384 68.0459 87.4549C63.6947 87.2714 60.2991 83.6011 60.4821 79.2375C60.6651 74.8739 64.325 71.4687 68.6762 71.6522C73.0275 71.8357 76.4231 75.506 76.2401 79.8696Z" fill="#5C403A"/>
<path d="M73.6375 73.9972C73.5562 73.9972 73.4545 73.9564 73.3935 73.8952C71.0349 71.3464 67.8833 71.9785 67.8629 71.9785C67.68 72.0193 67.5173 71.8969 67.4766 71.7134C67.436 71.5299 67.558 71.3668 67.741 71.326C67.8833 71.2852 71.2789 70.6123 73.9018 73.4262C74.0238 73.569 74.0238 73.7729 73.8815 73.8952C73.8002 73.9768 73.7188 73.9972 73.6375 73.9972Z" fill="white"/>
<path d="M95.8207 118.612L115.95 165.856L110.847 169.241L87.9518 145.405L95.8207 118.612Z" fill="#FFCEC8"/>
<path d="M111.538 161.33L108.264 166.448L120.545 180.313C120.85 180.558 121.257 180.558 121.542 180.354C121.908 180.13 121.989 179.64 121.786 179.253C122.579 180.109 123.351 180.925 124.144 181.781C124.144 181.802 124.653 182.067 125.12 181.843C125.507 181.618 125.73 181.088 125.547 180.599C125.832 180.925 126.117 181.251 126.381 181.578C126.869 181.822 127.459 181.781 127.865 181.414C128.272 181.068 128.313 180.599 128.109 180.069C127.682 179.6 127.276 179.11 126.869 178.662L124.185 175.603L127.499 177.805C128.008 178.131 128.516 178.172 128.902 177.703C129.268 177.234 129.146 176.684 128.719 176.235C126.462 174.155 124.49 171.81 122.233 169.69L123.961 170.424C124.327 170.607 124.754 170.689 125.181 170.628C125.771 170.546 126.279 170.22 126.584 169.771L123.046 167.671L119.529 165.632C118.797 165.204 117.943 165.061 117.13 165.224L115.523 165.53L111.538 161.33Z" fill="#FFCEC8"/>
<path d="M70.0589 95.6723L64.5893 149.34L88.8262 148.178C88.5822 143.345 94.4584 123.118 94.4584 123.118L98.9316 117.918C99.5619 116.736 99.9279 115.492 100.05 114.207C100.335 111.149 98.7486 108.294 96.2883 106.459C93.1977 104.175 91.1848 97.3035 87.7485 92.8584C74.3898 92.3894 73.4138 89.4736 73.4138 89.4736C71.7872 93.8779 70.0589 95.6723 70.0589 95.6723Z" fill="#384B61"/>
<path d="M76.8094 91.4514C76.8094 91.4514 79.168 94.2449 83.7226 97.9152C85.2882 99.159 89.0498 102.136 91.5711 101.585L92.6284 101.463C91.6727 99.261 89.4361 94.3265 87.4232 92.4098L76.8094 91.4514Z" fill="#FFCEC8"/>
<path d="M88.853 171.765L56.1439 165.814L51.5491 191.213L84.2581 197.164L88.853 171.765Z" fill="white"/>
<path d="M79.0257 197.462L38.2582 190.04C37.4449 189.897 36.9163 189.122 37.0586 188.306L41.5725 163.41C41.7148 162.594 42.4875 162.064 43.3008 162.207L84.0683 169.629C84.8816 169.771 85.4102 170.546 85.2679 171.362L80.754 196.279C80.5913 197.074 79.839 197.604 79.0257 197.462Z" fill="#384B61"/>
<path d="M78.8224 94.4284C78.3344 94.143 77.8667 93.8983 77.4194 93.7148C75.5691 92.9195 73.0072 92.5933 71.1569 93.5924C69.3879 94.5304 68.0256 96.5287 67.2326 98.323C66.0533 100.994 65.8093 103.951 65.362 106.805C64.5284 112.046 63.6947 117.286 62.8814 122.527C62.3527 125.809 61.8444 129.092 61.3158 132.375C61.3158 132.396 61.3158 132.436 61.2954 132.457L56.4155 181.639L63.7557 182.434C63.7557 182.434 73.7798 152.643 76.6671 144.059C77.1754 142.53 77.5617 140.98 77.8464 139.41C78.741 134.129 79.656 128.848 80.5507 123.566C81.5063 118 82.462 112.433 83.3973 106.846C83.8853 103.992 84.0479 101.28 82.95 98.5473C82.2383 96.8957 80.51 95.4072 78.8224 94.4284Z" fill="#FFCEC8"/>
<path d="M82.1367 119.753C82.8686 115.492 83.6006 111.21 84.3123 106.948C84.8409 103.808 85.0239 100.811 83.8243 97.8337C83.0923 96.0189 81.2013 94.3877 79.3307 93.2866C78.8021 92.9807 78.2734 92.7157 77.7854 92.4914C75.7318 91.6146 72.9462 91.2679 70.8926 92.3486C68.9609 93.3885 67.4563 95.5703 66.582 97.5482C65.2807 100.484 65.0367 103.727 64.5283 106.867C63.8574 111.149 63.166 115.451 62.4951 119.733H82.1367V119.753Z" fill="#384B61"/>
<path d="M57.1678 179.171L56.5172 181.374L52.9589 186.879C52.7759 186.961 52.0846 189.163 51.617 190.712C51.3526 191.569 51.6576 192.69 52.3693 193.241L54.5856 194.383C55.1346 194.607 55.7242 194.648 56.3139 194.505L59.1198 193.812L56.6799 192.935C57.2085 192.446 57.7575 191.956 58.2862 191.467L60.4618 189.305L60.8278 189.632L60.5431 191.589C60.4414 192.221 60.5024 192.874 60.7261 193.486C60.9904 194.199 61.7427 194.607 62.4951 194.423L62.3527 191.773C62.3527 191.773 62.8814 188.673 62.9017 188.551C62.922 188.449 63.654 183.678 63.654 183.678L64.4877 180.191L57.1678 179.171Z" fill="#FFCEC8"/>
<path d="M82.401 118.734C82.3603 118.734 82.34 118.734 82.2993 118.734C82.0553 118.693 81.8926 118.448 81.9333 118.183C81.9536 118.041 84.7596 104.257 84.3122 101.035C84.2716 100.79 84.4546 100.546 84.6986 100.505C84.9629 100.464 85.1866 100.648 85.2272 100.892C85.7152 104.277 82.9703 117.776 82.8483 118.347C82.8076 118.591 82.6043 118.734 82.401 118.734Z" fill="#384B61"/>
<path d="M509.045 330H0.955199C0.420288 330 0 329.561 0 329.003C0 328.445 0.420288 328.006 0.955199 328.006H509.045C509.58 328.006 510 328.445 510 329.003C510 329.561 509.58 330 509.045 330Z" fill="#FF6600" fill-opacity="0.08"/>
</g>
<defs>
<clipPath id="clip0_1_2375">
<rect width="510" height="330" fill="white"/>
</clipPath>
</defs>
</svg>
