<svg width="63" height="63" viewBox="0 0 63 63" fill="none" xmlns="http://www.w3.org/2000/svg">
<path fill-rule="evenodd" clip-rule="evenodd" d="M62.6444 31.3215C62.6444 48.6205 48.6215 62.6444 31.3215 62.6444C14.0229 62.6444 0 48.6205 0 31.3215C0 14.0252 14.0229 9.31265e-06 31.3215 9.31265e-06C39.6137 -0.00639486 47.5723 3.29047 53.4704 9.17463C59.3343 15.0242 62.638 22.9987 62.6444 31.3215Z" fill="#FF6600"/>
<path fill-rule="evenodd" clip-rule="evenodd" d="M30.4323 50.516C23.0814 50.1676 16.5756 45.6552 13.6741 38.8937C10.7726 32.1309 11.9905 24.2858 16.8001 18.741C17.2696 18.2018 18.0841 18.148 18.6194 18.6232C18.6359 18.6373 18.6524 18.6526 18.6677 18.668L21.9954 21.9956C22.4585 22.4516 22.4966 23.1868 22.0842 23.6889C18.7209 27.7479 18.419 33.5628 21.3446 37.9548C24.2702 42.3532 29.7307 44.318 34.7877 42.79C39.8434 41.2632 43.3044 36.6035 43.3057 31.3214C43.2981 28.4664 42.2603 25.7113 40.3864 23.5723C39.9462 23.0895 39.9462 22.3466 40.3864 21.8637L43.7865 18.4925C44.2699 17.9764 45.0768 17.9533 45.5894 18.4413C45.6071 18.458 45.6236 18.4746 45.6401 18.4925C50.8164 24.2332 52.028 32.5702 48.7027 39.57C45.3788 46.5697 38.1726 50.8861 30.4323 50.5147V50.516Z" fill="white"/>
</svg>
