<svg width="471" height="674" viewBox="0 0 471 674" fill="none" xmlns="http://www.w3.org/2000/svg">
<g opacity="0.08">
<g filter="url(#filter0_b_1_1804)">
<path d="M222.029 671.459C219.442 671.479 217.584 671.493 216.122 671.394C214.675 671.297 213.736 671.096 212.971 670.749C211.133 669.916 209.657 668.452 208.81 666.62C208.457 665.857 208.248 664.921 208.14 663.475C208.03 662.013 208.029 660.155 208.029 657.568L208.029 279.839C208.029 277.252 208.03 275.394 208.14 273.931C208.248 272.483 208.457 271.543 208.81 270.775C209.657 268.93 211.133 267.443 212.971 266.582C213.736 266.223 214.675 266.007 216.122 265.887C217.584 265.766 219.442 265.751 222.029 265.731L743.902 261.678C746.489 261.657 748.347 261.644 749.809 261.742C751.256 261.84 752.195 262.041 752.96 262.388C754.798 263.221 756.274 264.685 757.121 266.516C757.474 267.279 757.683 268.216 757.791 269.662C757.901 271.124 757.902 272.982 757.902 275.569L757.902 653.297C757.902 655.885 757.901 657.743 757.791 659.206C757.683 660.654 757.474 661.594 757.121 662.362L758.483 662.98L757.121 662.362C756.274 664.207 754.798 665.693 752.96 666.555C752.195 666.914 751.256 667.13 749.809 667.25C748.347 667.371 746.489 667.386 743.902 667.406L222.029 671.459Z" stroke="#FF6600" stroke-width="3"/>
</g>
<g filter="url(#filter1_b_1_1804)">
<path d="M157.325 573.556C154.738 573.576 152.88 573.59 151.418 573.491C149.971 573.394 149.032 573.193 148.267 572.846C146.429 572.013 144.954 570.549 144.106 568.717C143.753 567.954 143.545 567.018 143.436 565.571C143.326 564.11 143.326 562.252 143.326 559.665L143.326 181.936C143.326 179.349 143.327 177.491 143.436 176.028C143.545 174.58 143.753 173.64 144.106 172.872C144.954 171.027 146.429 169.54 148.267 168.679C149.033 168.32 149.971 168.104 151.418 167.984C152.88 167.863 154.738 167.848 157.325 167.828L679.198 163.775C681.786 163.754 683.643 163.741 685.106 163.839C686.552 163.937 687.491 164.138 688.257 164.485C690.095 165.318 691.57 166.782 692.417 168.613C692.77 169.376 692.979 170.313 693.087 171.759C693.197 173.221 693.198 175.078 693.198 177.666L693.198 555.394C693.198 557.982 693.197 559.84 693.087 561.303C692.979 562.75 692.77 563.691 692.417 564.459L693.779 565.076L692.417 564.459C691.57 566.304 690.095 567.79 688.257 568.652C687.491 569.011 686.552 569.227 685.106 569.347C683.643 569.468 681.786 569.483 679.198 569.503L157.325 573.556Z" stroke="#FF6600" stroke-width="3"/>
</g>
<g filter="url(#filter2_b_1_1804)">
<path d="M93.1811 475.596C90.5939 475.617 88.7361 475.63 87.2738 475.532C85.827 475.434 84.8885 475.233 84.1228 474.886C82.2849 474.053 80.8096 472.589 79.9623 470.758C79.6093 469.995 79.4006 469.058 79.2922 467.612C79.1825 466.15 79.1815 464.292 79.1815 461.705L79.1816 83.9766C79.1816 81.3893 79.1826 79.5314 79.2922 78.0682C79.4007 76.6205 79.6093 75.6804 79.9623 74.9119C80.8096 73.0674 82.2849 71.5806 84.1228 70.719C84.8885 70.36 85.827 70.1441 87.2739 70.0243C88.7361 69.9033 90.5939 69.8879 93.1812 69.8678L615.054 65.8148C617.642 65.7947 619.499 65.7812 620.962 65.8795C622.408 65.9768 623.347 66.1782 624.113 66.5252C625.951 67.3582 627.426 68.8221 628.273 70.6535C628.626 71.4165 628.835 72.3534 628.943 73.7994C629.053 75.2609 629.054 77.1187 629.054 79.7061L629.054 457.435C629.054 460.022 629.053 461.88 628.943 463.343C628.835 464.791 628.626 465.731 628.273 466.499L629.635 467.117L628.273 466.499C627.426 468.344 625.951 469.831 624.113 470.692C623.347 471.051 622.408 471.267 620.962 471.387C619.499 471.508 617.642 471.523 615.054 471.543L93.1811 475.596Z" stroke="#FF6600" stroke-width="3"/>
</g>
<g filter="url(#filter3_b_1_1804)">
<path d="M16.2085 411.864C13.6213 411.884 11.7635 411.897 10.3012 411.799C8.85436 411.702 7.91589 411.5 7.15018 411.153C5.31227 410.32 3.83699 408.856 2.9897 407.025C2.6367 406.262 2.42804 405.325 2.31956 403.879C2.20992 402.417 2.20894 400.56 2.20894 397.972L2.20898 20.2437C2.20898 17.6564 2.20997 15.7985 2.3196 14.3353C2.42809 12.8876 2.63675 11.9475 2.98974 11.179C3.83704 9.33444 5.31232 7.84764 7.15022 6.98608C7.91594 6.62713 8.8544 6.41117 10.3013 6.29144C11.7636 6.17043 13.6213 6.15503 16.2086 6.13493L538.082 2.08188C540.669 2.06178 542.527 2.04833 543.989 2.14662C545.436 2.24388 546.374 2.44527 547.14 2.79232C548.978 3.62533 550.453 5.08922 551.3 6.92062C551.654 7.68362 551.862 8.62048 551.971 10.0665C552.08 11.528 552.081 13.3858 552.081 15.9731L552.081 393.702C552.081 396.289 552.08 398.147 551.971 399.61C551.862 401.058 551.653 401.998 551.301 402.766L552.663 403.384L551.3 402.766C550.453 404.611 548.978 406.098 547.14 406.959C546.374 407.318 545.436 407.534 543.989 407.654C542.527 407.775 540.669 407.79 538.082 407.81L16.2085 411.864Z" stroke="#FF6600" stroke-width="3"/>
</g>
</g>
<defs>
<filter id="filter0_b_1_1804" x="175.893" y="229.527" width="614.144" height="474.082" filterUnits="userSpaceOnUse" color-interpolation-filters="sRGB">
<feFlood flood-opacity="0" result="BackgroundImageFix"/>
<feGaussianBlur in="BackgroundImage" stdDeviation="15.318"/>
<feComposite in2="SourceAlpha" operator="in" result="effect1_backgroundBlur_1_1804"/>
<feBlend mode="normal" in="SourceGraphic" in2="effect1_backgroundBlur_1_1804" result="shape"/>
</filter>
<filter id="filter1_b_1_1804" x="111.19" y="131.624" width="614.144" height="474.082" filterUnits="userSpaceOnUse" color-interpolation-filters="sRGB">
<feFlood flood-opacity="0" result="BackgroundImageFix"/>
<feGaussianBlur in="BackgroundImage" stdDeviation="15.318"/>
<feComposite in2="SourceAlpha" operator="in" result="effect1_backgroundBlur_1_1804"/>
<feBlend mode="normal" in="SourceGraphic" in2="effect1_backgroundBlur_1_1804" result="shape"/>
</filter>
<filter id="filter2_b_1_1804" x="47.0456" y="33.6645" width="614.144" height="474.082" filterUnits="userSpaceOnUse" color-interpolation-filters="sRGB">
<feFlood flood-opacity="0" result="BackgroundImageFix"/>
<feGaussianBlur in="BackgroundImage" stdDeviation="15.318"/>
<feComposite in2="SourceAlpha" operator="in" result="effect1_backgroundBlur_1_1804"/>
<feBlend mode="normal" in="SourceGraphic" in2="effect1_backgroundBlur_1_1804" result="shape"/>
</filter>
<filter id="filter3_b_1_1804" x="-29.927" y="-30.0684" width="614.144" height="474.082" filterUnits="userSpaceOnUse" color-interpolation-filters="sRGB">
<feFlood flood-opacity="0" result="BackgroundImageFix"/>
<feGaussianBlur in="BackgroundImage" stdDeviation="15.318"/>
<feComposite in2="SourceAlpha" operator="in" result="effect1_backgroundBlur_1_1804"/>
<feBlend mode="normal" in="SourceGraphic" in2="effect1_backgroundBlur_1_1804" result="shape"/>
</filter>
</defs>
</svg>
